<svg width="35" height="34" viewBox="0 0 35 34" fill="none" xmlns="http://www.w3.org/2000/svg">
<path d="M1 1H4.24218C5.69055 1 6.41474 1 6.95995 1.378C7.50517 1.756 7.73408 2.416 8.1919 3.736L9.32396 7" stroke="black" stroke-width="2" stroke-linecap="round"/>
<path d="M30.1341 27H10.4688C10.167 27 10.0151 27 9.89859 26.988C9.60965 26.957 9.33067 26.8682 9.07963 26.7272C8.8286 26.5863 8.61108 26.3964 8.44109 26.1697C8.27111 25.943 8.15243 25.6846 8.09271 25.4111C8.033 25.1377 8.03356 24.8552 8.09437 24.582C8.14241 24.405 8.19865 24.2302 8.26293 24.058C8.37114 23.75 8.42317 23.596 8.48352 23.458C8.77975 22.7761 9.26673 22.1864 9.89045 21.7543C10.5142 21.3221 11.2503 21.0645 12.017 21.01C12.171 21 12.3396 21 12.6767 21H23.8912" stroke="black" stroke-width="2" stroke-linecap="round" stroke-linejoin="round"/>
<path d="M23.2229 21H16.8946C14.2309 21 12.8991 21 11.8586 20.34C10.816 19.68 10.2916 18.504 9.24282 16.152L8.89113 15.364C7.20553 11.584 6.36481 9.69798 7.28877 8.34798C8.21689 6.99998 10.3561 6.99998 14.6305 6.99998H25.6181C30.4044 6.99998 32.7955 6.99998 33.6986 8.49398C34.5997 9.98798 33.4135 11.984 31.0391 15.976L30.4502 16.97C29.2807 18.936 28.6959 19.92 27.7262 20.46C26.7585 21 25.5786 21 23.2229 21Z" stroke="black" stroke-width="2" stroke-linecap="round"/>
<path d="M29.0934 34C30.2427 34 31.1744 33.1046 31.1744 32C31.1744 30.8954 30.2427 30 29.0934 30C27.9441 30 27.0125 30.8954 27.0125 32C27.0125 33.1046 27.9441 34 29.0934 34Z" fill="black"/>
<path d="M12.4455 34C13.5948 34 14.5265 33.1046 14.5265 32C14.5265 30.8954 13.5948 30 12.4455 30C11.2962 30 10.3645 30.8954 10.3645 32C10.3645 33.1046 11.2962 34 12.4455 34Z" fill="black"/>
</svg>
