<svg width="37" height="37" viewBox="0 0 37 37" fill="none" xmlns="http://www.w3.org/2000/svg">
<g clip-path="url(#clip0_33_805)">
<path d="M36.6618 35.0142L25.4271 23.7106C27.521 21.2027 28.7831 17.9762 28.7831 14.4531C28.7831 6.47095 22.3121 0 14.33 0C6.34778 0 -0.123169 6.47095 -0.123169 14.4531C-0.123169 22.4353 6.34778 28.9062 14.33 28.9062C17.9565 28.9062 21.2692 27.5673 23.8072 25.36L35.0263 36.6497C35.4778 37.1012 36.2103 37.1012 36.6618 36.6497C37.1127 36.1981 37.1127 35.4662 36.6618 35.0142H36.6618ZM14.33 26.6128C7.61446 26.6128 2.17025 21.1686 2.17025 14.4531C2.17025 7.73763 7.61446 2.29342 14.33 2.29342C21.0455 2.29342 26.4897 7.73763 26.4897 14.4531C26.4897 21.1686 21.0455 26.6128 14.33 26.6128Z" fill="black"/>
</g>
<defs>
<clipPath id="clip0_33_805">
<rect width="37" height="37" fill="white"/>
</clipPath>
</defs>
</svg>
