<svg width="43" height="43" viewBox="0 0 43 43" fill="none" xmlns="http://www.w3.org/2000/svg">
<path d="M7.16669 32.25C7.16669 30.3493 7.92174 28.5264 9.26575 27.1824C10.6098 25.8384 12.4326 25.0833 14.3334 25.0833H28.6667C30.5674 25.0833 32.3903 25.8384 33.7343 27.1824C35.0783 28.5264 35.8334 30.3493 35.8334 32.25C35.8334 33.2004 35.4558 34.1118 34.7838 34.7838C34.1118 35.4558 33.2004 35.8333 32.25 35.8333H10.75C9.79966 35.8333 8.88823 35.4558 8.21622 34.7838C7.54422 34.1118 7.16669 33.2004 7.16669 32.25Z" stroke="black" stroke-width="2" stroke-linejoin="round"/>
<path d="M21.5 17.9167C24.4685 17.9167 26.875 15.5102 26.875 12.5417C26.875 9.57314 24.4685 7.16667 21.5 7.16667C18.5315 7.16667 16.125 9.57314 16.125 12.5417C16.125 15.5102 18.5315 17.9167 21.5 17.9167Z" stroke="black" stroke-width="2"/>
</svg>
